<svg width="256" height="256" viewBox="0 0 256 256" fill="none" xmlns="http://www.w3.org/2000/svg">
  <rect x="20" y="20" width="216" height="216" rx="56" fill="#0E1628"/>
  <rect x="28" y="28" width="200" height="200" rx="48" fill="url(#bg)"/>
  <circle cx="128" cy="128" r="56" fill="#E8FFF1" fill-opacity="0.12"/>
  <path d="M128 88C105.909 88 88 105.909 88 128C88 150.091 105.909 168 128 168C150.091 168 168 150.091 168 128C168 105.909 150.091 88 128 88ZM128 104C130.761 104 133 106.239 133 109V123H147C149.761 123 152 125.239 152 128C152 130.761 149.761 133 147 133H133V147C133 149.761 130.761 152 128 152C125.239 152 123 149.761 123 147V133H109C106.239 133 104 130.761 104 128C104 125.239 106.239 123 109 123H123V109C123 106.239 125.239 104 128 104Z" fill="#6EE67A"/>
  <path d="M79.416 95.776C81.368 93.824 84.533 93.824 86.485 95.776L95.678 104.969C97.63 106.921 97.63 110.086 95.678 112.038C93.726 113.99 90.561 113.99 88.609 112.038L79.416 102.845C77.464 100.893 77.464 97.728 79.416 95.776Z" fill="#A5FFAF"/>
  <path d="M160.322 143.962C162.274 142.01 165.439 142.01 167.391 143.962L176.584 153.155C178.536 155.107 178.536 158.272 176.584 160.224C174.632 162.176 171.467 162.176 169.515 160.224L160.322 151.031C158.37 149.079 158.37 145.914 160.322 143.962Z" fill="#A5FFAF"/>
  <path d="M160.322 112.038C158.37 110.086 158.37 106.921 160.322 104.969L169.515 95.776C171.467 93.824 174.632 93.824 176.584 95.776C178.536 97.728 178.536 100.893 176.584 102.845L167.391 112.038C165.439 113.99 162.274 113.99 160.322 112.038Z" fill="#A5FFAF"/>
  <path d="M79.416 160.224C77.464 158.272 77.464 155.107 79.416 153.155L88.609 143.962C90.561 142.01 93.726 142.01 95.678 143.962C97.63 145.914 97.63 149.079 95.678 151.031L86.485 160.224C84.533 162.176 81.368 162.176 79.416 160.224Z" fill="#A5FFAF"/>
  <defs>
    <linearGradient id="bg" x1="48" y1="40" x2="208" y2="220" gradientUnits="userSpaceOnUse">
      <stop stop-color="#17311F"/>
      <stop offset="1" stop-color="#102A3A"/>
    </linearGradient>
  </defs>
</svg>
